<?xml version="1.0" encoding="UTF-8"?>
<!DOCTYPE svg PUBLIC "-//W3C//DTD SVG 1.0//EN" "http://www.w3.org/TR/2001/REC-SVG-20010904/DTD/svg10.dtd">
<!-- Creator: CorelDRAW 2019 (64 Bit) -->
<svg xmlns="http://www.w3.org/2000/svg" xml:space="preserve" width="50mm" height="61.054mm" version="1.0" style="shape-rendering:geometricPrecision; text-rendering:geometricPrecision; image-rendering:optimizeQuality; fill-rule:evenodd; clip-rule:evenodd"
viewBox="0 0 29269.34 4088.48"
 xmlns:xlink="http://www.w3.org/1999/xlink"
 xmlns:xodm="http://www.corel.com/coreldraw/odm/2003">
 <defs>
  <style type="text/css">
   <![CDATA[
    .fil0 {fill:black}
    .fil1 {fill:black;fill-rule:nonzero}
   ]]>
  </style>
 </defs>
 <g id="Camada_x0020_1">
  <metadata id="CorelCorpID_0Corel-Layer"/>
  <g id="_2161323138736">
   <path class="fil0" d="M1543.7 2097.04c0,167.22 65.63,299.1 131.06,406.3 36.42,59.67 75.3,102.17 117.31,156.26 97.82,125.92 300.76,289.33 432.86,387.84 346.11,258.12 345.31,266.46 689.28,9.77l229.34 -181.01c27.92,-25.96 47.47,-38.23 73.51,-63.28l126.83 -136.97c249.51,-268.37 388.23,-669.93 97.89,-972.37 -182.26,-189.86 -482.74,-240.2 -703.03,-121.28 -113.67,61.38 -116.02,88.34 -169.18,123.94 -117.33,-175.23 -449.39,-245.1 -683.96,-127.06 -198.59,99.94 -341.91,300.34 -341.91,517.87z"/>
   <path class="fil0" d="M-0 397.01l0 625.3c0,158.95 174.57,351.73 400.58,351.73l0 2520.72c0,202 332.2,226.48 332.2,-29.32l0 -2491.41c234.5,-5.23 400.58,-178.38 400.58,-420.12l0 -547.13c0,-46.52 -19.89,-85.86 -42.59,-113.74 -53.01,-65.11 -167.45,-70.05 -232.76,-15.05 -78.63,66.22 -56.85,205.6 -56.85,324.2 0,84.68 -0.02,169.35 0,254.03 0.03,98.8 24.04,177.94 -68.38,185.64 0,-92.75 10.29,-627.54 -11.22,-692.24 -46.73,-140.51 -244.24,-146.05 -307,-16.78 -29.26,60.29 -13.98,616.83 -13.98,709.02 -36.68,-3.05 -45.74,-14.15 -68.38,-29.32 0,-107.06 12.77,-586.1 -16.42,-667.5 -58.62,-163.45 -315.78,-128.8 -315.78,51.97z"/>
   <path class="fil0" d="M4435.7 406.79l0 3478.21c0,190.48 266.09,231.87 324.39,50.82 18.44,-57.29 7.8,-1697.95 7.8,-1799.7 78.65,-41.61 138.8,-102.43 174.75,-186.74 36.55,-85.72 54.36,-192.68 59.74,-304.43l0 -158.67c-5.17,-118.37 -20.86,-233.55 -39.81,-326.47 -37.02,-181.66 -144.31,-677.72 -213.91,-831.5 -49.83,-110.07 -208.02,-111.88 -270.37,-35.26 -22.7,27.88 -42.59,67.22 -42.59,113.74z"/>
   <path class="fil0" d="M2573.51 511.78c971.43,0 1758.94,787.52 1758.94,1758.95 0,971.43 -787.51,1758.94 -1758.94,1758.94 -971.43,0 -1758.94,-787.51 -1758.94,-1758.94 0,-971.43 787.51,-1758.95 1758.94,-1758.95zm0 328.42c790.06,0 1430.53,640.47 1430.53,1430.53 0,790.05 -640.47,1430.53 -1430.53,1430.53 -790.05,0 -1430.53,-640.48 -1430.53,-1430.53 0,-790.06 640.48,-1430.53 1430.53,-1430.53z"/>
   <path class="fil1" d="M8531.8 0l0 450.52 -536.88 -4.51 0 3577.15 -512.09 0 0 -253.04c-239.53,168.94 -493.32,253.04 -761.38,253.04l-26.28 0c-415.23,0 -765.14,-183.97 -1049.72,-551.89 -149.42,-232.02 -223.76,-477.55 -223.76,-737.35 0,-421.99 183.97,-774.9 551.89,-1057.98 229.01,-150.92 478.31,-226.76 747.87,-226.76 269.56,0 499.33,69.83 688.54,209.49l72.84 43.55 0 -771.89 0 -385.2c-22.53,-360.41 88.6,-542.88 331.89,-545.13l717.08 0zm-2598.01 2738.43c0,272.57 127.65,494.08 382.94,664.52 120.14,72.08 255.3,107.37 404.73,107.37 255.3,0 467.79,-117.89 638.24,-353.66 81.85,-133.65 123.15,-267.31 123.15,-400.96l0 -39.05c0,-241.03 -113.39,-446.77 -339.4,-618.71 -134.4,-90.86 -283.07,-135.91 -443.76,-135.91 -250.79,0 -463.28,116.38 -635.99,349.91 -86.34,135.91 -129.9,278.57 -129.9,426.49zm3581.66 -1289.25c337.13,0 638.24,126.15 901.79,378.44 250.8,265.8 376.19,569.15 376.19,910.8 0,358.17 -138.16,673.53 -415.99,946.09 -254.54,226.02 -543.63,338.65 -866.5,338.65l-11.26 0c-382.2,0 -709.58,-151.67 -980.64,-455.03 -202.74,-253.79 -303.36,-530.86 -303.36,-829.71 0,-259.8 76.59,-505.34 230.53,-736.6 275.56,-368.68 632.23,-552.64 1069.24,-552.64zm-780.91 1244.94l0 33.04 -6.76 6.76 6.76 4.51 0 35.29c0,207.99 99.12,400.97 296.6,578.17 151.67,105.88 309.36,158.43 473.04,158.43 253.79,0 464.04,-108.12 631.49,-325.12 98.36,-145.67 147.17,-294.34 147.17,-446.77 0,-266.56 -123.89,-488.07 -371.68,-664.52 -134.4,-74.33 -274.07,-111.88 -417.48,-111.88 -256.8,0 -470.8,120.14 -642.74,360.41 -77.34,132.15 -116.38,256.05 -116.38,371.68zm3574.9 -1244.94c378.44,0 705.07,151.67 979.14,455.78 201.98,255.3 303.35,531.61 303.35,828.96 -3,96.86 -12.01,182.47 -26.27,257.55l-1988.32 0c62.32,189.22 188.48,334.14 377.69,435.51 111.88,55.56 227.51,83.34 347.65,83.34 202.74,0 385.2,-74.33 548.14,-223.75l358.17 358.16 0 6.76c-259.05,247.78 -559.41,371.68 -899.54,371.68l-11.26 0c-382.2,0 -709.58,-151.67 -980.64,-455.03 -202.74,-253.79 -303.36,-530.86 -303.36,-829.71 0,-381.45 151.68,-709.58 455.03,-985.15 246.28,-202.73 526.36,-304.1 840.23,-304.1zm-732.1 1031.7l1451.44 0c-57.07,-171.2 -172.7,-312.36 -347.65,-421.99 -130.65,-64.58 -258.3,-96.86 -382.94,-96.86 -272.58,0 -496.33,131.4 -670.53,393.46l-50.31 125.39z"/>
   <path class="fil1" d="M19600.37 1426.08c275.57,0 530.87,84.85 765.89,253.04l6.76 0 0 -253.04 512.09 0 0 2573.98 -512.09 0 0 -253.04c-239.53,168.94 -483.57,253.04 -732.86,253.04l-68.32 0c-385.2,0 -719.33,-168.94 -1000.91,-506.09 -172.7,-243.29 -259.05,-503.08 -259.05,-778.65 0,-426.49 183.97,-779.4 551.89,-1057.98 227.51,-153.93 473.05,-231.27 736.6,-231.27zm-776.4 1284.74c0,287.58 137.41,516.6 411.48,686.3 115.63,60.07 233.52,90.1 354.41,90.1l33.04 0c232.77,0 436.26,-108.12 608.96,-325.12 93.86,-142.67 141.17,-283.08 141.17,-422.74l0 -35.3c0,-268.06 -127.65,-487.31 -382.95,-657.76 -130.65,-71.33 -262.05,-107.37 -394.2,-107.37 -246.29,0 -454.28,108.12 -624.72,325.12 -97.61,145.67 -147.18,294.34 -147.18,446.77zm2283.4 90.1c-51.06,-558.64 119.39,-972.38 510.59,-1240.43l6.76 0c159.94,-89.35 329.63,-134.4 510.59,-134.4 297.34,0 554.89,116.38 771.89,349.91 210.99,-233.52 472.3,-349.91 783.16,-349.91 283.07,0 533.11,111.13 750.11,332.64 178.71,201.99 268.07,439.25 268.07,710.33l0 1531.02 -512.1 0 0 -1531.02c0,-238.03 -119.39,-406.98 -358.92,-508.34 -66.07,-14.27 -118.64,-21.78 -158.43,-21.78 -209.49,0 -369.43,106.62 -479.05,321.37 -27.04,68.33 -39.8,155.43 -39.8,259.05l0 1480.72 -512.85 0 0 -1559.56c0,-187.71 -99.12,-340.15 -296.59,-458.04 -82.6,-29.28 -157.68,-43.54 -226.77,-43.54 -189.22,0 -343.14,99.87 -461.78,298.84 -29.29,82.6 -44.3,150.93 -44.3,207.25l0 1555.05 -512.1 0 1.5 -1199.15zm5121.7 -1374.84c337.13,0 638.24,126.15 901.79,378.44 250.8,265.8 376.19,569.15 376.19,910.8 0,358.17 -138.16,673.53 -415.99,946.09 -254.54,226.02 -543.63,338.65 -866.5,338.65l-11.26 0c-382.2,0 -709.58,-151.67 -980.64,-455.03 -202.74,-253.79 -303.36,-530.86 -303.36,-829.71 0,-259.8 76.59,-505.34 230.53,-736.6 275.56,-368.68 632.23,-552.64 1069.24,-552.64zm-780.91 1244.94l0 33.04 -6.76 6.76 6.76 4.51 0 35.29c0,207.99 99.12,400.97 296.6,578.17 151.67,105.88 309.36,158.43 473.04,158.43 253.79,0 464.04,-108.12 631.49,-325.12 98.36,-145.67 147.17,-294.34 147.17,-446.77 0,-266.56 -123.89,-488.07 -371.68,-664.52 -134.4,-74.33 -274.07,-111.88 -417.48,-111.88 -256.8,0 -470.8,120.14 -642.74,360.41 -77.34,132.15 -116.38,256.05 -116.38,371.68zm2279.64 42.05c29.29,-418.99 199.73,-750.88 512.1,-994.15l6.76 0c272.57,-195.23 613.46,-292.84 1022.68,-292.84l0 512.85c-495.57,0 -818.45,172.7 -967.87,518.85 -41.3,101.37 -61.57,195.23 -61.57,281.58l0 1260.71 -512.1 0 0 -1286.99z"/>
   <path class="fil1" d="M15261.55 3629.35c-11.13,25.65 -24.46,50.88 -40.01,75.66l-2.05 3.03c-16.57,26.06 -35.19,51.03 -55.88,74.89 -21.32,24.83 -44.4,48.46 -69.16,70.84 -24.46,22.11 -50.32,42.68 -77.5,61.66l-0.25 0.17c-27.53,19.15 -56.01,36.33 -85.43,51.56 -29.36,15.22 -59.94,28.62 -91.78,40.17 -31.7,11.49 -63.46,20.5 -95.14,27.03 -32.01,6.6 -63.8,10.61 -95.2,12.05l-2.4 0.05 0 0.18c-54.36,0 -107.06,-4.12 -158.04,-12.34 -50.67,-8.17 -99.01,-20.52 -144.92,-37l-0.2 -0.08c-45.76,-16.57 -89.35,-37.01 -130.69,-61.27 -40.95,-24.03 -79.37,-51.68 -115.11,-82.95 -36.03,-31.3 -69.83,-66.49 -101.23,-105.38 -31.14,-38.54 -60.01,-80.8 -86.5,-126.64l-1.76 -3.29c-37.42,-65.55 -65.51,-131.29 -84.22,-197.09 -19.36,-68.13 -29.06,-136.57 -29.06,-205.19 0,-73.68 10.71,-150.08 32.1,-229.63 10.29,-38.26 23.02,-77.65 38.16,-118.12 15.24,-40.72 32.08,-80.41 50.46,-118.92l1.16 -2.3c25.56,-54.81 53.4,-105.89 83.58,-153.23 30.69,-48.14 63.64,-91.93 98.83,-131.28 35.35,-39.55 74.01,-75.37 115.92,-107.19 41.53,-31.56 86.11,-59.09 133.61,-82.4 47.17,-23.46 97.94,-43.08 152.2,-58.91 53.52,-15.62 110.34,-27.45 170.38,-35.47 2.42,-0.32 4.83,-0.47 7.2,-0.48l0 -0.19c55.01,0 119.56,11.81 194.05,35.38l4.51 1.64c29.61,9.33 55.21,16.45 76.7,21.4 19.3,4.45 33.36,6.63 42.13,6.63 8.28,0 17.51,-1.17 27.58,-3.53 9.35,-2.2 19.38,-5.36 30.03,-9.52 4.48,-3.23 9.01,-5.96 13.67,-8.22 11.02,-5.33 22.1,-7.97 33.49,-7.97 33.15,0 59.57,15.82 76.71,47.43l0.11 -0.05c5.75,10.4 10.13,21.77 13.1,34.04 2.91,12 4.37,24.03 4.37,36.01 0,69.42 1.25,128.46 3.81,176.97 2.61,49.24 6.57,90.02 11.89,122.31 1.57,9.62 0.57,19.06 -2.5,27.64 -4.01,12.77 -9.79,23.54 -17.2,32.1 -13.87,16.09 -31.27,24.28 -51.88,24.28 -13.09,0 -25.69,-3.6 -37.86,-10.38l-0.22 0c-8.42,-4.72 -16.31,-10.87 -23.67,-18.23 -7.77,-7.76 -14.34,-16.81 -19.83,-27.05l-0.2 0c-4.84,-9.1 -8.48,-19.32 -10.98,-30.56l-0.55 -2.86 -0.11 0.02c-3.26,-19.24 -8.55,-38.51 -15.93,-57.85 -7.5,-19.69 -17.02,-39.03 -28.6,-58.06l-0.16 -0.26c-11.62,-19.1 -24.79,-37 -39.51,-53.56 -14.62,-16.43 -30.89,-31.65 -48.73,-45.5 -17.67,-13.72 -35.19,-24.79 -52.6,-33.23 -17.22,-8.34 -34.75,-14.44 -52.63,-18.28l-4.5 -1.15c-16.72,-3.98 -34.27,-7.12 -52.69,-9.39 -18.45,-2.27 -37.27,-3.43 -56.53,-3.43 -75.94,0 -149.05,20.38 -219.32,61.12 -73.09,42.37 -143.62,106.57 -211.57,192.52l-0.29 0.37c-20.63,25.84 -39.96,53.08 -57.88,81.82 -17.91,28.72 -34.25,58.73 -49,90.03 -15.3,32.3 -28.54,64.41 -39.55,96.17 -11.06,31.9 -20.33,64.34 -27.68,97.23 -7.31,32.68 -12.85,66.25 -16.6,100.69 -3.64,33.35 -5.45,67.96 -5.45,103.85 0,96.69 13.83,186.32 41.41,268.88 27.52,82.34 68.98,158.63 124.28,228.82l0.87 1.14c51.52,64.14 110.91,112.17 178.11,144.01 67.84,32.17 144.63,48.25 230.29,48.25 17.68,0 36.8,-1.05 57.47,-3.1 22.5,-2.23 47.14,-5.48 73.92,-9.68 36.21,-7.48 71.51,-19.64 105.95,-36.44 34.91,-17.03 68.35,-38.63 100.35,-64.72 32.86,-26.8 62.51,-55.79 88.78,-86.94 25.84,-30.64 48.18,-63.08 66.85,-97.28 13.83,-25.42 44.6,-35.72 70.69,-24.6l29.72 12.6c10.59,4.51 19.06,11.91 24.89,20.9 0.81,-16.73 2.67,-34.47 5.57,-53.15 3.93,-25.3 9.53,-50.58 16.7,-75.81l1.17 -3.64c16.86,-53.46 40.1,-101.73 69.6,-144.89 30.09,-43.98 66.63,-82.48 109.52,-115.57 42.42,-32.74 89.22,-59.05 140.41,-78.91 50.72,-19.68 105.43,-32.99 164.09,-39.84l4.48 -0.33c18.87,-1.82 33.52,-3.1 43.81,-3.81 14.78,-1.01 26,-1.54 33.57,-1.54 79.51,0 153.07,14.7 220.73,44.09 67.44,29.29 128.1,72.97 181.99,130.96 1.54,1.66 2.96,3.38 4.25,5.16 33.13,40.9 58.02,84.74 74.7,131.59 17.08,47.95 25.61,98.67 25.61,152.26 0,21.58 -1.87,44.81 -5.52,69.74 -3.54,24.15 -8.71,49.39 -15.43,75.85l-0.76 2.71c-7.11,30.05 -16.52,58.27 -28.22,84.71 -12.36,27.94 -27.51,54.49 -45.5,79.75 -17.37,24.8 -36.99,47.73 -58.72,68.85 -21.43,20.82 -44.98,39.82 -70.52,57.02l0.08 0.11c-25.4,17.17 -53.06,32.32 -83.07,45.41 -29.59,12.92 -60.89,23.54 -93.96,31.86l-3.25 0.71c-24.77,5.28 -49.35,9.32 -73.64,12.06 -25.09,2.82 -49.26,4.26 -72.41,4.26 -69.24,0 -136.75,-11.36 -202.5,-34.06 -64.98,-22.44 -127.43,-55.86 -187.33,-100.19l-3.03 -2.42c-50.39,-43.15 -88.43,-91.81 -114.02,-146.01 -20.19,-42.78 -32.52,-88.5 -36.95,-137.22zm826.09 -259.84c-11.26,-18.69 -22.58,-35.04 -33.89,-48.75 -10.5,-12.74 -21.7,-24.04 -33.55,-33.75l-2.68 -2.34c-10.47,-8.6 -21.88,-16 -34.17,-22.16 -13.76,-6.91 -29.24,-12.66 -46.32,-17.2l-3 -0.88c-26.46,-6.72 -50.59,-11.86 -72.29,-15.38 -20.17,-3.25 -38.12,-4.91 -53.72,-4.91 -41.69,0 -78.89,9.47 -111.6,28.42 -33.82,19.59 -64.14,49.85 -90.98,90.76l-1.2 1.76c-20.45,32.94 -35.96,67.78 -46.43,104.49 -10.72,37.51 -16.11,77.19 -16.11,119.03 0,24.55 1.53,48.22 4.53,71.05 3.01,22.96 7.41,45.86 13.08,68.66 7.99,23.48 18.94,44.81 32.82,63.96 14.14,19.49 31.17,36.76 51.07,51.72 20.08,15.1 41.64,26.62 64.64,34.56 22.66,7.83 47.22,12.36 73.56,13.6l0 -0.13c12.23,0 22.38,0 33.6,0.65 7.01,0.38 14.48,1.15 22.51,1.96 24.13,-0.05 46.58,-1.93 67.27,-5.57 20.58,-3.63 39.59,-9 56.92,-16.04l2.54 -0.96c15.12,-6.34 29.4,-14.96 42.87,-25.83 14.77,-11.93 28.65,-26.65 41.69,-44.16l0 -0.21c31.07,-41.63 54.16,-82.72 69.2,-123.23 14.55,-39.16 21.83,-78.66 21.83,-118.41 0,-29.03 -4.22,-57.49 -12.66,-85.41 -8.78,-29.09 -21.75,-57.32 -38.86,-84.66l-0.47 -0.77 -0.19 0.12zm2228.14 348.44c1.76,10.53 3.02,18.77 3.77,24.71 1.16,9.35 1.75,16.97 1.75,22.83 0,37.77 -7.29,74.72 -21.85,110.77 -14.08,34.87 -34.89,68.41 -62.39,100.51l-0.2 0.21c-25.71,31.28 -57.59,56.35 -95.52,75.06 -36.96,18.21 -79.3,30.27 -126.94,36.04 -2.2,0.26 -4.38,0.38 -6.55,0.38 -30.92,0.07 -59.62,-5.35 -85.98,-16.1 -26.83,-10.93 -50.79,-27.26 -71.83,-48.89l-0.2 -0.21c-18.38,-19.14 -34.74,-41.36 -48.95,-66.52 -13.93,-24.64 -25.44,-51.23 -34.44,-79.71 -0.72,-2.28 -1.29,-4.58 -1.7,-6.87 -7.01,-28.86 -12.32,-58.61 -15.87,-89.18 -3.69,-31.86 -5.57,-64.41 -5.57,-97.57 0,-7.94 0.63,-22.74 1.85,-44.42 1.24,-21.76 2.89,-46.48 4.91,-74.31l0.13 -1.5c1.99,-30.45 3.5,-56.43 4.41,-77.56 0.89,-20.51 1.36,-40.45 1.36,-60.21 0,-39.93 -3.62,-76.15 -10.81,-108.6 -7.04,-31.76 -17.72,-61.07 -31.97,-87.87 -1,-1.89 -1.88,-3.82 -2.65,-5.79 -0.39,-0.54 -0.83,-0.95 -1.28,-1.2 -3.09,-1.73 -8.77,-2.6 -17.03,-2.6 -6.78,0 -13.92,0.91 -21.31,2.75 -7.78,1.95 -15.89,4.88 -24.23,8.79 -24.41,14.14 -50.01,33.57 -76.77,58.29 -28.44,26.29 -58.55,58.97 -90.3,98.02 -30.24,37.24 -54.41,73.54 -72.33,108.75 -16.71,32.81 -27.64,63.94 -32.65,93.24 -3.99,38.6 -7.05,84.22 -9.07,136.76 -1.79,46.2 -2.77,101.23 -2.94,165.16l1.94 0.57c9.21,2.59 18.17,5.75 26.85,9.54 8.91,3.88 17.42,8.49 25.44,13.81 12.52,8.24 22.42,18.76 29.51,31.32 6.98,12.29 11.04,25.97 12.07,40.71 2.04,30.73 -21.21,57.32 -51.94,59.36l-5.1 0.11c-50.31,1.66 -95.77,2.95 -136.45,3.81 -47.07,1.02 -81.67,1.53 -104,1.53 -18.56,0 -39.47,-0.3 -62.5,-0.87 -20.15,-0.53 -35.17,-1.19 -44.9,-1.97 -30.73,-2.41 -53.7,-29.28 -51.29,-60.01 0.34,-4.34 1.17,-8.52 2.42,-12.5 2.88,-11.18 7.21,-21.17 13.02,-29.95 7.86,-11.85 18.13,-21.28 30.9,-28.15l-0.07 -0.12c6.34,-3.49 14.62,-7.08 24.77,-10.87l0 -0.21c5.85,-2.18 15.73,-5.36 29.14,-9.43l1.12 -0.32 -0.03 -0.12 11.13 -3.28 0 -238.15c0,-53.83 -0.37,-97.43 -1.09,-130.57 -0.82,-37.9 -2.14,-73.21 -3.92,-105.83 -1.68,-31.08 -4.15,-62.26 -7.42,-93.53 -3.18,-30.29 -7.1,-60.41 -11.86,-90.38 -1.75,-1.86 -4.66,-4.04 -8.66,-6.44l-0.82 -0.51c-5.81,-3.52 -11.82,-6.28 -18.07,-8.23 -5.82,-1.81 -12.07,-3.03 -18.73,-3.68 -4.52,0.07 -8.61,0.56 -12.26,1.45 -4.31,1.04 -9.16,2.92 -14.52,5.51l-1.18 0.56c-39.05,20.71 -74.73,44.2 -107.08,70.44 -33.17,26.9 -63.11,56.86 -89.93,89.88 -26.69,32.86 -49.13,67.86 -67.3,104.89 -18.27,37.25 -32.52,77.04 -42.73,119.28l-0.45 1.75c-3.75,13.67 -6.68,30.19 -8.7,49.46 -2.03,19.3 -3.06,42.26 -3.06,68.86l-0.04 2.18c0.64,16.66 1.05,34.51 1.45,51.3 0,13.15 0.49,26.5 0.71,39.67l0.5 46.12c0,5.24 0.42,9.54 1.26,12.88 0.87,3.2 2.07,6.21 3.59,8.92 0.85,1.31 1.83,2.39 2.9,3.21l0.26 0.2c15.51,0.87 29.29,3.54 41.33,8.04 23.46,8.8 39.62,23.77 48.45,45.12 2.85,6.94 4.19,14.11 4.19,21.17l0.19 0c0,18.66 -5.63,34.96 -16.64,48.61l-2.01 2.36c-10.62,12.17 -24.56,20.17 -41.63,23.84 -14.11,3.33 -32.4,6.31 -53.88,9 -2.26,0.27 -4.53,0.41 -6.76,0.41 -56.79,0.03 -111.28,-0.48 -163.51,-1.5 -44.98,-0.87 -79.85,-2.12 -104.5,-3.7 -27.63,-0.12 -48.7,-12.11 -62.99,-36.15 -8.62,-14.51 -13.01,-32.58 -13.01,-54.23 0,-16.42 7.09,-31.19 18.38,-41.42 7.76,-7.13 18.18,-13.48 31.27,-19.03 10.13,-4.28 21.83,-8.23 35.04,-11.79l0.99 -0.25c8.58,-2.58 15.95,-5.09 21.93,-7.56l5.07 -2.25 0.2 -3.22 2.6 -605.12 -0.21 0c0,-2.1 -0.18,-3.71 -0.47,-4.73l-0.68 -1.81c-0.75,-0.95 -1.62,-1.81 -2.57,-2.58 -1.01,-0.8 -2.2,-1.5 -3.49,-2.02 -3.4,-1.36 -6.61,-3.02 -9.57,-4.95 -1.67,-0.92 -4.13,-1.88 -7.37,-2.84 -5.28,-1.55 -12.01,-2.84 -20.17,-3.79 -14.63,-1.68 -27.34,-4.09 -38.04,-7.32 -15.89,-4.79 -28.99,-11.86 -39.23,-21.48 -11.66,-10.96 -17.54,-25.76 -17.54,-40.6l-0.15 0c0,-24.1 6.53,-43.98 19.71,-59.75 1.41,-1.69 2.92,-3.28 4.49,-4.76 15.14,-15.55 34.55,-23.24 58.31,-23.24l233.56 0c29.72,0 54.02,23.22 55.76,52.5 3.31,22.62 5.9,48.68 7.75,77.99l0.06 1.17c1.4,22.94 2.42,49.29 3.02,79.01 14.8,-21.78 30.77,-42.58 47.92,-62.34 22.03,-25.44 45.58,-49.07 70.6,-70.83l3.32 -2.66c25.43,-21.94 52.4,-40.66 80.8,-56.27 30.09,-16.53 62.07,-29.75 95.75,-39.72l4.24 -1.07c13.51,-3.55 27.28,-6.29 41.37,-8.15 16.07,-2.14 31.71,-3.23 46.93,-3.23 31.1,0 60.57,5.09 88.3,15.28 27.64,10.15 53.16,25.38 76.5,45.62 14.69,12.72 27.44,26.26 38.03,40.46 10.69,14.33 19.71,30.02 26.85,46.91l0.16 -0.07c6.56,15.21 12.21,32.02 16.87,50.53 4.46,17.74 7.98,36.9 10.42,57.52l0.27 3.11 2.37 17.93c43.79,-68.05 87.5,-123.59 131.12,-166.63 76.01,-74.98 153.22,-113.55 231.42,-115.69l1.53 -0.02 0 -0.2c32.39,0 62.91,4.02 91.4,12.12 28.69,8.17 55.21,20.59 79.46,37.32l0.06 -0.1c24.87,16.75 46.28,37.95 64.18,63.51 17.14,24.5 30.62,52.61 40.37,84.26 11.45,32.28 19.97,65.6 25.63,99.89 5.93,35.86 8.86,72.4 8.86,109.44 0,16.09 -0.86,37.91 -2.65,65.41 -1.54,23.69 -3.99,52.73 -7.39,87.17l-0.17 1.48c-2.79,28.77 -5.05,55.2 -6.78,79.06 -1.48,20.68 -2.21,36.39 -2.21,47.15 0,23.39 1.49,46.79 4.41,70.23 3.06,24.55 7.43,48.42 13.04,71.66l0.43 1.94c1.03,3.97 3.09,7.41 6.14,10.23 3.98,3.69 9.75,6.99 17.3,9.83 13.1,-0.88 25.76,-4 37.93,-9.36 15.94,-7.01 31.61,-17.87 46.93,-32.52l2.88 -2.57c3.39,-2.88 6.38,-6.3 8.92,-10.25 3.31,-5.19 6.37,-11.9 9.17,-20.14 8.18,-22.86 14.65,-47.04 22.35,-70.13 4.87,-15.78 11.37,-29.57 19.31,-41.32 9.58,-14.18 21.46,-25.73 35.39,-34.58 9.28,-5.92 19.64,-8.73 29.89,-8.72l0 -0.23 5.24 0c28.95,0 52.77,22.03 55.59,50.25z"/>
  </g>
 </g>
</svg>
