<?xml version="1.0" encoding="UTF-8"?>
<!DOCTYPE svg PUBLIC "-//W3C//DTD SVG 1.0//EN" "http://www.w3.org/TR/2001/REC-SVG-20010904/DTD/svg10.dtd">
<!-- Creator: CorelDRAW 2019 (64 Bit) -->
<svg xmlns="http://www.w3.org/2000/svg" xml:space="preserve" width="306mm" height="47.9054mm" version="1.0" style="shape-rendering:geometricPrecision; text-rendering:geometricPrecision; image-rendering:optimizeQuality; fill-rule:evenodd; clip-rule:evenodd"
viewBox="0 0 29868.99 4676.1"
 xmlns:xlink="http://www.w3.org/1999/xlink"
 xmlns:xodm="http://www.corel.com/coreldraw/odm/2003">
 <defs>
  <style type="text/css">
   <![CDATA[
    .fil1 {fill:#FEFEFE}
    .fil2 {fill:black}
    .fil0 {fill:#E0A400}
    .fil3 {fill:black;fill-rule:nonzero}
    .fil4 {fill:#E0A400;fill-rule:nonzero}
   ]]>
  </style>
 </defs>
 <g id="Camada_x0020_1">
  <metadata id="CorelCorpID_0Corel-Layer"/>
  <path class="fil0" d="M1837.27 2390.88c0,167.3 65.66,299.25 131.12,406.49 36.44,59.7 75.34,102.22 117.37,156.33 97.86,125.98 300.91,289.47 433.07,388.02 346.28,258.24 345.47,266.59 689.61,9.77l229.44 -181.1c27.94,-25.97 47.49,-38.24 73.54,-63.31l126.89 -137.04c249.63,-268.5 388.41,-670.25 97.93,-972.83 -182.35,-189.95 -482.97,-240.32 -703.37,-121.34 -113.73,61.41 -116.08,88.39 -169.26,124 -117.39,-175.31 -449.61,-245.22 -684.28,-127.12 -198.69,99.98 -342.08,300.49 -342.08,518.12z"/>
  <path class="fil1" d="M1318.79 3911.66l0 248.47c0,394.35 -420.4,616.9 -733.41,392.21 -117.98,-84.69 -184.61,-217.9 -184.61,-362.88l0 -2295.79c-225.74,-104.88 -400.77,-322.95 -400.77,-578.03l0 -625.6c0,-372.74 386.6,-533.5 658.53,-405.46 126.24,-59.14 275.82,-58.17 400.8,0.58 183.7,-86.42 419.4,-46.78 551.89,116 68.84,84.56 108.34,189.21 108.34,298.66l0 163.08c327.68,-221.51 722.75,-350.86 1148,-350.86 629.96,0 1193.71,283.88 1570.25,730.69l0 -542.9c0,-109.45 39.5,-214.09 108.33,-298.65 206.85,-254.13 629.83,-197.9 764.39,99.38 62.26,137.55 105.22,324.78 140.71,472.48 33.6,139.86 64.74,280.75 93.46,421.7 24.83,121.84 40.02,248.13 45.44,372.33 0.2,4.48 0.28,8.3 0.28,12.78l0 158.74c0,4.94 -0.1,9.14 -0.34,14.07 -4.82,100.25 -18.12,203.33 -46.13,301.08l83.28 0c112.62,-194.7 269.37,-366.89 463.46,-516.23 5.95,-4.58 11.17,-8.29 17.43,-12.43 274.83,-181.12 580.15,-275.19 909.36,-275.19 161.93,0 319.47,21.39 468.91,67.93l0 -670.84c-15.28,-266.94 27.73,-562.1 258.01,-732.28 106.55,-78.74 232.75,-113.45 364.16,-114.67 0.96,-0.01 1.77,-0.01 2.71,-0.01l717.42 0c161.28,0 292.83,131.55 292.83,292.83l0 450.74c0,81.08 -29.07,150.85 -86.64,207.93 -57.57,57.08 -127.58,85.58 -208.65,84.89l-241.84 -2.03 0 990.51c314.81,-371.84 727.67,-575 1228.42,-575 426.79,0 797.48,165.81 1104.71,459.92 3.78,3.61 6.91,6.77 10.49,10.57 109.89,116.46 201.47,241.6 273.04,375.11 91.43,-170.36 215.82,-325.62 369.56,-465.27 3.7,-3.37 6.93,-6.16 10.8,-9.34 296.73,-244.25 642.27,-370.99 1026.73,-370.99 477.57,0 878.9,199.67 1197.13,552.79 4.41,4.89 8.04,9.19 12.12,14.35 146.13,184.71 253.02,386.52 312.51,604.24 16.24,-20.68 33.13,-40.87 50.66,-60.49 47.64,-53.3 100.22,-102.01 157.14,-145.26 56.63,-43.03 117.38,-80.32 181.13,-111.81 64.22,-31.72 131.22,-57.45 199.96,-77.51 69.95,-20.4 141.51,-34.98 213.71,-44.63 6.27,-0.84 12.56,-1.5 18.87,-1.99 8.92,-0.83 17.96,-1.25 27.1,-1.25 95.78,0 191.49,20.24 282.49,49.04 3.5,1.11 6.56,2.14 9.9,3.33 3.63,1.12 7.28,2.25 10.94,3.35 38.21,-13.1 78.29,-19.9 119.03,-19.9 136.75,0 257.16,70.36 326.31,186.84 2.36,3.86 4.65,7.78 6.85,11.77 18.54,33.55 32.37,69.46 41.4,106.71 8.33,34.37 12.61,69.63 12.61,105 0,53.76 0.56,107.86 3.41,161.56 1.57,29.69 3.58,60.93 8.42,90.3 9.24,56.18 4.57,113.72 -13.56,167.6 -11.89,36.34 -28.81,70.69 -50.68,101.87 20.23,-9.71 40.87,-18.64 61.86,-26.78 75.92,-29.46 155.32,-48.28 236.15,-57.72 4.31,-0.5 7.99,-0.85 12.33,-1.17l1.24 -0.09c16.2,-1.56 32.45,-3.06 48.69,-4.17 17.81,-1.22 35.74,-2.23 53.6,-2.23 116.5,0 230.5,21.88 337.49,68.35 8.75,3.8 17.4,7.74 25.96,11.83 55.23,-30.63 117.78,-46.56 182.94,-46.56l233.67 0c57.34,0 111.6,13.9 159.49,38.59 39.41,-19.33 80.41,-35.23 122.54,-47.7 3.95,-1.17 7.34,-2.1 11.33,-3.11l1.6 -0.39c25.46,-6.69 51.31,-11.78 77.42,-15.24 28.3,-3.74 56.81,-5.76 85.36,-5.76 64.67,0 128.55,10.93 189.28,33.24 42.3,15.53 82.15,36.33 119.02,61.76 87.44,-57.32 185.84,-94.08 294.04,-99.44 7.2,-0.54 14.47,-0.81 21.8,-0.81 58,0 115.73,7.42 171.55,23.29 50.35,14.33 98.23,35.38 142.58,62.86 -3.26,-41.25 -4.91,-82.94 -4.91,-125.06 0,-538 243.77,-970.58 668.23,-1291.95 4.35,-3.3 8.14,-6.01 12.67,-9.07 271.16,-183.46 573.47,-281.68 901.05,-281.68 193.86,0 378.41,34.48 552.58,100.41 53.75,-61.48 132.69,-100.41 220.44,-100.41l512.33 0c161.28,0 292.83,131.55 292.83,292.83l0 132.46c78.01,-87.04 169.32,-167.24 274.85,-239.56 22.66,-15.53 45.73,-27.39 69.81,-35.77 191.18,-98.92 396.6,-149.96 613.31,-149.96 290.31,0 548.66,88.07 770.88,250.54 225.3,-165.3 489.48,-250.54 784.91,-250.54 375.78,0 697.98,153.59 959.65,420.7 3.65,3.73 6.68,6.98 10.13,10.88 87.96,99.42 159.12,206.44 213.27,320.18 13.88,-22.97 28.33,-45.73 43.34,-68.29 3.1,-4.67 5.86,-8.57 9.2,-13.05 323.18,-432.38 762.26,-670.43 1304.31,-670.43 426.79,0 797.48,165.81 1104.71,459.92 3.78,3.61 6.91,6.77 10.49,10.57 115.22,122.11 210.31,253.76 283.32,394.6 102.69,-193.28 246.47,-364.77 433.33,-510.31 18.32,-14.27 37.2,-26 56.83,-35.28 342.54,-230.65 742.15,-319.51 1153.04,-319.51 161.28,0 292.83,131.55 292.83,292.83l0 513.09c0,161.28 -131.55,292.83 -292.83,292.83 -284.1,0 -574.58,56.89 -698.3,339.61 -20.93,51.94 -38.8,112.08 -38.8,168.37l0 1261.31c0,161.28 -131.55,292.83 -292.83,292.83l-512.34 0c-161.28,0 -292.83,-131.55 -292.83,-292.83l0 -281.36c-42.93,52.22 -89.36,102.76 -139.13,151.59 -3.65,3.57 -6.83,6.54 -10.65,9.94 -300.87,267.15 -657.43,412.67 -1061.34,412.67l-11.26 0c-478.58,0 -881.76,-197.41 -1199.46,-552.97 -3.78,-4.23 -6.9,-7.92 -10.43,-12.35 -0.91,-1.14 -1.83,-2.28 -2.73,-3.43l0 275.91c0,161.28 -131.55,292.83 -292.83,292.83l-512.34 0c-161.28,0 -292.83,-131.55 -292.83,-292.83l0 -1531.75c0,-121.31 -54.75,-180.81 -156.86,-228.47 -23,-4.67 -48.62,-9.07 -67.91,-9.07 -106.62,0 -163.24,58.86 -210.78,147.16 -13.14,41.59 -15.48,100.21 -15.48,140.71l0 1481.42c0,161.28 -131.55,292.83 -292.83,292.83l-513.09 0c-161.28,0 -292.83,-131.55 -292.83,-292.83l0 -1560.3c0,-88.88 -59.58,-146.23 -128.93,-191.25 -32.98,-10.08 -68.51,-17.74 -101.84,-17.74 -91,0 -149.54,60.83 -195.5,131.93 -8.78,27.16 -18,60.42 -18,81.56l0 1555.79c0,161.28 -131.55,292.83 -292.83,292.83l-512.34 0c-40.02,0 -77.28,-7.09 -111.63,-21.18 -33.78,13.66 -70.66,21.18 -109.24,21.18l-512.33 0c-86.3,0 -164.07,-37.66 -217.75,-97.39 -162.66,62.48 -334.72,97.39 -515.45,97.39l-68.36 0c-379.91,0 -707.16,-133.68 -981.6,-364.46 -5.63,19.41 -12.27,38.57 -19.89,57.43 -26.61,65.88 -64.42,126.14 -110.47,180.12 -52.2,62.62 -116.59,112.66 -189.78,148.74 -69.54,34.27 -144.45,54.81 -221.29,64.11 -13.64,1.65 -27.37,2.47 -41.11,2.5 -67.69,0.14 -134.41,-12.19 -197.15,-37.77 -60.8,-24.77 -115.52,-61.09 -162.33,-106.94 -57.76,58.01 -135.86,96.18 -223.39,101.98 -4.64,0.31 -8.59,0.48 -13.23,0.58l-3.37 0.08c-46.02,1.51 -92.06,2.85 -138.1,3.85 -36.75,0.79 -73.61,1.6 -110.37,1.6 -23.31,0 -46.63,-0.37 -69.94,-0.97 -20.15,-0.51 -40.44,-1.19 -60.53,-2.78 -50.97,-4.02 -98.61,-18.99 -140.77,-42.4 -26.38,12.99 -54.42,22.87 -83.62,29.43 -27.19,6.29 -54.96,10.59 -82.64,14.04 -14.19,1.77 -28.49,2.65 -42.8,2.66 -56.48,0.03 -112.97,-0.46 -169.43,-1.56 -37.07,-0.72 -74.36,-1.63 -111.39,-3.86 -80.69,-2.7 -155.34,-30.67 -215.63,-79.06 -6.28,2.92 -12.59,5.76 -18.94,8.53 -45.15,19.7 -91.9,35.44 -139.65,47.46 -3.06,0.77 -5.67,1.39 -8.75,2.06l-3.25 0.71c-34.21,7.5 -68.82,13.1 -103.61,17.02 -34.93,3.92 -70.07,6.1 -105.21,6.1 -101.82,0 -201.93,-16.88 -298.18,-50.11 -95.72,-33.05 -184.72,-81.46 -266.04,-141.64 -2.98,-2.21 -5.48,-4.13 -8.38,-6.44l-3.04 -2.42c-2.81,-2.24 -5.17,-4.19 -7.9,-6.52 -1.43,-1.23 -2.87,-2.47 -4.29,-3.71 -10.95,8.29 -22.06,16.36 -33.32,24.23 -0.95,0.65 -1.84,1.28 -2.72,1.88 -37.13,25.69 -75.86,49.02 -115.95,69.79 -40.97,21.23 -83.31,39.73 -126.69,55.46 -44.32,16.08 -89.75,29.05 -135.93,38.57 -44.16,9.1 -88.96,14.99 -133.98,17.42 -7.52,0.59 -15.11,0.88 -22.76,0.88 -68.54,0 -137.05,-5.17 -204.73,-16.08 -67.16,-10.83 -133.27,-27.52 -197.3,-50.5 -1.11,-0.39 -2.16,-0.78 -3.19,-1.16 -61.4,-22.38 -120.69,-50.2 -177.06,-83.28 -56.6,-33.22 -109.91,-71.69 -159.37,-114.81 -49.63,-43.26 -95.28,-90.93 -136.65,-142.14 -41.72,-51.65 -79.07,-106.72 -112.29,-164.19 -1.69,-2.94 -3.1,-5.47 -4.7,-8.45 -46.27,-81.68 -83.77,-168.13 -109.45,-258.49 -20.13,-70.84 -32.94,-143.3 -37.9,-216.55l-242.44 0 153.67 153.67c57.02,57.01 85.77,126.42 85.77,207.06l0 6.76c0,82.93 -30.49,154.29 -90.43,211.61 -306.11,292.8 -676.83,453.08 -1102.38,453.08l-11.26 0c-478.58,0 -881.76,-197.41 -1199.46,-552.97 -3.78,-4.23 -6.9,-7.92 -10.43,-12.35 -71.35,-89.32 -133.21,-182.78 -184.78,-280.16 -81.97,152.61 -190.24,293.69 -321.9,422.87 -3.65,3.57 -6.83,6.54 -10.65,9.94 -300.87,267.15 -657.43,412.67 -1061.34,412.67l-11.26 0c-478.58,0 -881.76,-197.41 -1199.46,-552.97 -3.78,-4.23 -6.9,-7.92 -10.43,-12.35 -0.92,-1.14 -1.83,-2.29 -2.74,-3.45l0 275.93c0,161.28 -131.55,292.83 -292.83,292.83l-512.33 0c-87.07,0 -165.46,-38.33 -219.19,-98.99 -171.26,64.52 -352.4,98.99 -542.56,98.99l-26.3 0c-532.23,0 -959.4,-248.95 -1281.85,-665.83 -5.42,-7 -9.77,-13.17 -14.56,-20.61 -42.67,-66.25 -80.57,-134.16 -113.53,-203.68l-222.77 0c-0.28,71.49 -0.72,142.97 -1.4,214.44 -0.89,94.36 4.85,298.24 -23.15,385.2 -159.95,496.74 -896.12,381.17 -896.12,-140.6l0 -293.11c-376.54,446.8 -940.29,730.69 -1570.25,730.69 -618.1,0 -1172.45,-273.29 -1548.78,-705.61z"/>
  <path class="fil0" d="M1837.27 2390.88c0,167.3 65.66,299.25 131.12,406.49 36.44,59.7 75.34,102.22 117.37,156.33 97.86,125.98 300.91,289.47 433.07,388.02 346.28,258.24 345.47,266.59 689.61,9.77l229.44 -181.1c27.94,-25.97 47.49,-38.24 73.54,-63.31l126.89 -137.04c249.63,-268.5 388.41,-670.25 97.93,-972.83 -182.35,-189.95 -482.97,-240.32 -703.37,-121.34 -113.73,61.41 -116.08,88.39 -169.26,124 -117.39,-175.31 -449.61,-245.22 -684.28,-127.12 -198.69,99.98 -342.08,300.49 -342.08,518.12zm13724.4 1533.04c-11.14,25.66 -24.47,50.9 -40.03,75.7l-2.05 3.04c-16.57,26.07 -35.21,51.05 -55.9,74.93 -21.33,24.84 -44.42,48.48 -69.2,70.88 -24.47,22.12 -50.35,42.7 -77.53,61.69l-0.25 0.17c-27.55,19.16 -56.04,36.35 -85.47,51.59 -29.37,15.23 -59.97,28.63 -91.82,40.19 -31.71,11.5 -63.49,20.51 -95.18,27.04 -32.03,6.6 -63.83,10.61 -95.25,12.05l-2.4 0.05 0 0.18c-54.39,0 -107.11,-4.12 -158.12,-12.35 -50.7,-8.17 -99.06,-20.53 -144.99,-37.01l-0.2 -0.08c-45.78,-16.57 -89.39,-37.02 -130.75,-61.3 -40.97,-24.04 -79.41,-51.7 -115.16,-82.99 -36.05,-31.31 -69.86,-66.52 -101.28,-105.43 -31.16,-38.56 -60.04,-80.84 -86.54,-126.7l-1.76 -3.29c-37.43,-65.58 -65.55,-131.36 -84.26,-197.18 -19.37,-68.16 -29.08,-136.64 -29.08,-205.29 0,-73.72 10.72,-150.16 32.11,-229.74 10.3,-38.27 23.03,-77.69 38.18,-118.18 15.25,-40.74 32.09,-80.45 50.48,-118.98l1.16 -2.3c25.57,-54.84 53.42,-105.94 83.62,-153.31 30.71,-48.16 63.67,-91.97 98.88,-131.35 35.36,-39.57 74.05,-75.4 115.97,-107.25 41.55,-31.58 86.15,-59.12 133.68,-82.44 47.19,-23.48 97.98,-43.11 152.27,-58.94 53.55,-15.63 110.39,-27.47 170.46,-35.49 2.42,-0.32 4.83,-0.47 7.2,-0.48l0 -0.19c55.03,0 119.61,11.81 194.14,35.39l4.51 1.64c29.62,9.33 55.24,16.46 76.73,21.41 19.31,4.45 33.37,6.64 42.15,6.64 8.29,0 17.52,-1.17 27.59,-3.53 9.35,-2.2 19.39,-5.36 30.04,-9.53 4.48,-3.23 9.02,-5.96 13.68,-8.23 11.03,-5.33 22.11,-7.97 33.51,-7.97 33.17,0 59.6,15.82 76.75,47.45l0.11 -0.05c5.75,10.41 10.13,21.78 13.11,34.06 2.91,12.01 4.37,24.04 4.37,36.03 0,69.45 1.25,128.52 3.82,177.06 2.62,49.26 6.57,90.07 11.9,122.37 1.57,9.62 0.57,19.07 -2.5,27.65 -4.01,12.78 -9.79,23.55 -17.21,32.11 -13.88,16.1 -31.28,24.3 -51.91,24.3 -13.1,0 -25.7,-3.6 -37.88,-10.39l-0.22 0c-8.42,-4.72 -16.32,-10.87 -23.68,-18.23 -7.77,-7.76 -14.35,-16.82 -19.83,-27.07l-0.2 0c-4.84,-9.11 -8.48,-19.33 -10.98,-30.57l-0.55 -2.86 -0.11 0.02c-3.26,-19.25 -8.55,-38.53 -15.94,-57.87 -7.51,-19.7 -17.03,-39.04 -28.61,-58.09l-0.16 -0.26c-11.63,-19.11 -24.8,-37.01 -39.53,-53.59 -14.62,-16.44 -30.9,-31.67 -48.76,-45.53 -17.68,-13.72 -35.21,-24.8 -52.62,-33.25 -17.23,-8.35 -34.77,-14.45 -52.65,-18.29l-4.5 -1.15c-16.73,-3.98 -34.29,-7.13 -52.72,-9.39 -18.46,-2.27 -37.29,-3.44 -56.56,-3.44 -75.98,0 -149.12,20.39 -219.43,61.15 -73.12,42.39 -143.69,106.62 -211.67,192.62l-0.29 0.37c-20.64,25.85 -39.98,53.1 -57.91,81.86 -17.92,28.74 -34.27,58.76 -49.02,90.08 -15.31,32.32 -28.55,64.44 -39.57,96.22 -11.07,31.92 -20.34,64.37 -27.69,97.28 -7.31,32.7 -12.86,66.28 -16.6,100.73 -3.64,33.36 -5.46,68 -5.46,103.9 0,96.73 13.84,186.41 41.43,269.01 27.54,82.38 69.01,158.71 124.34,228.93l0.87 1.14c51.55,64.17 110.96,112.22 178.2,144.07 67.87,32.18 144.7,48.27 230.4,48.27 17.69,0 36.82,-1.05 57.49,-3.1 22.51,-2.24 47.17,-5.49 73.96,-9.68 36.22,-7.49 71.55,-19.65 106,-36.46 34.93,-17.04 68.39,-38.64 100.4,-64.76 32.88,-26.81 62.54,-55.81 88.83,-86.98 25.86,-30.66 48.2,-63.11 66.88,-97.33 13.84,-25.43 44.62,-35.74 70.72,-24.61l29.73 12.6c10.59,4.51 19.07,11.92 24.9,20.91 0.81,-16.74 2.67,-34.49 5.57,-53.18 3.93,-25.31 9.54,-50.6 16.71,-75.84l1.17 -3.64c16.87,-53.48 40.12,-101.78 69.64,-144.96 30.1,-44 66.66,-82.52 109.57,-115.63 42.44,-32.76 89.27,-59.07 140.47,-78.95 50.75,-19.69 105.48,-33 164.17,-39.85l4.48 -0.33c18.88,-1.83 33.54,-3.1 43.83,-3.81 14.79,-1.02 26.01,-1.54 33.59,-1.54 79.54,0 153.14,14.71 220.84,44.11 67.47,29.3 128.16,73 182.07,131.02 1.54,1.66 2.96,3.38 4.26,5.16 33.15,40.92 58.05,84.78 74.73,131.65 17.09,47.98 25.62,98.71 25.62,152.33 0,21.59 -1.87,44.83 -5.52,69.77 -3.54,24.16 -8.72,49.41 -15.44,75.88l-0.76 2.71c-7.12,30.06 -16.53,58.29 -28.23,84.75 -12.37,27.96 -27.53,54.52 -45.53,79.79 -17.37,24.81 -37,47.75 -58.75,68.88 -21.44,20.83 -45,39.84 -70.55,57.04l0.08 0.11c-25.41,17.18 -53.08,32.34 -83.11,45.43 -29.61,12.92 -60.92,23.55 -94.01,31.88l-3.25 0.71c-24.78,5.28 -49.37,9.32 -73.68,12.06 -25.11,2.82 -49.28,4.27 -72.45,4.27 -69.27,0 -136.81,-11.36 -202.6,-34.08 -65.01,-22.45 -127.49,-55.88 -187.42,-100.24l-3.04 -2.42c-50.42,-43.17 -88.47,-91.85 -114.08,-146.07 -20.2,-42.8 -32.53,-88.54 -36.97,-137.29zm826.48 -259.97c-11.26,-18.7 -22.59,-35.05 -33.91,-48.78 -10.5,-12.75 -21.71,-24.05 -33.57,-33.76l-2.68 -2.34c-10.47,-8.6 -21.89,-16.01 -34.18,-22.17 -13.76,-6.91 -29.25,-12.67 -46.35,-17.21l-3 -0.88c-26.47,-6.73 -50.61,-11.87 -72.32,-15.38 -20.18,-3.25 -38.14,-4.91 -53.74,-4.91 -41.71,0 -78.93,9.48 -111.66,28.43 -33.83,19.6 -64.17,49.87 -91.02,90.81l-1.2 1.76c-20.46,32.95 -35.98,67.81 -46.45,104.54 -10.73,37.53 -16.12,77.23 -16.12,119.09 0,24.56 1.53,48.24 4.53,71.08 3.02,22.97 7.41,45.88 13.09,68.69 7.99,23.49 18.95,44.83 32.84,63.99 14.14,19.5 31.19,36.78 51.09,51.74 20.09,15.11 41.66,26.63 64.67,34.57 22.68,7.84 47.24,12.37 73.6,13.61l0 -0.13c12.24,0 22.39,0 33.62,0.65 7.02,0.38 14.49,1.15 22.52,1.96 24.14,-0.05 46.6,-1.93 67.3,-5.57 20.59,-3.63 39.61,-9 56.95,-16.05l2.54 -0.96c15.13,-6.34 29.41,-14.96 42.89,-25.84 14.78,-11.94 28.67,-26.67 41.71,-44.18l0 -0.21c31.09,-41.65 54.18,-82.76 69.24,-123.29 14.55,-39.18 21.84,-78.69 21.84,-118.47 0,-29.04 -4.23,-57.52 -12.67,-85.45 -8.78,-29.11 -21.76,-57.35 -38.88,-84.7l-0.47 -0.77 -0.19 0.12zm2229.2 348.61c1.76,10.53 3.03,18.78 3.77,24.72 1.16,9.35 1.75,16.97 1.75,22.84 0,37.79 -7.29,74.76 -21.86,110.83 -14.09,34.89 -34.91,68.44 -62.42,100.56l-0.2 0.21c-25.72,31.29 -57.62,56.38 -95.56,75.09 -36.98,18.21 -79.34,30.29 -127,36.06 -2.2,0.26 -4.38,0.38 -6.55,0.38 -30.93,0.07 -59.65,-5.35 -86.02,-16.11 -26.84,-10.93 -50.82,-27.27 -71.86,-48.91l-0.2 -0.21c-18.39,-19.15 -34.76,-41.38 -48.97,-66.55 -13.94,-24.65 -25.45,-51.26 -34.46,-79.75 -0.72,-2.28 -1.29,-4.58 -1.7,-6.87 -7.02,-28.87 -12.33,-58.63 -15.88,-89.23 -3.69,-31.88 -5.57,-64.44 -5.57,-97.62 0,-7.95 0.63,-22.75 1.85,-44.44 1.24,-21.77 2.89,-46.5 4.91,-74.35l0.13 -1.5c1.99,-30.46 3.5,-56.46 4.41,-77.6 0.89,-20.52 1.36,-40.47 1.36,-60.24 0,-39.95 -3.62,-76.19 -10.82,-108.65 -7.05,-31.77 -17.73,-61.09 -31.99,-87.91 -1,-1.89 -1.88,-3.83 -2.66,-5.79 -0.39,-0.54 -0.83,-0.95 -1.28,-1.2 -3.09,-1.73 -8.78,-2.61 -17.04,-2.61 -6.78,0 -13.93,0.91 -21.32,2.75 -7.78,1.95 -15.9,4.88 -24.24,8.79 -24.42,14.14 -50.04,33.59 -76.81,58.32 -28.45,26.31 -58.58,59 -90.34,98.07 -30.26,37.26 -54.44,73.58 -72.37,108.8 -16.72,32.83 -27.65,63.97 -32.66,93.29 -3.99,38.61 -7.06,84.26 -9.08,136.82 -1.79,46.22 -2.77,101.28 -2.94,165.24l1.94 0.57c9.21,2.59 18.18,5.75 26.86,9.55 8.91,3.88 17.42,8.49 25.45,13.81 12.52,8.25 22.43,18.77 29.53,31.33 6.98,12.3 11.05,25.98 12.07,40.73 2.04,30.75 -21.22,57.35 -51.97,59.39l-5.11 0.11c-50.34,1.66 -95.82,2.95 -136.52,3.82 -47.1,1.02 -81.71,1.53 -104.05,1.53 -18.57,0 -39.49,-0.3 -62.53,-0.87 -20.16,-0.53 -35.19,-1.19 -44.92,-1.97 -30.75,-2.41 -53.73,-29.29 -51.31,-60.04 0.34,-4.34 1.17,-8.52 2.42,-12.5 2.88,-11.19 7.21,-21.18 13.03,-29.97 7.87,-11.86 18.14,-21.29 30.91,-28.16l-0.07 -0.12c6.34,-3.49 14.63,-7.09 24.78,-10.87l0 -0.21c5.86,-2.18 15.73,-5.36 29.16,-9.44l1.12 -0.32 -0.03 -0.12 11.14 -3.28 0 -238.27c0,-53.85 -0.37,-97.47 -1.09,-130.63 -0.82,-37.92 -2.14,-73.25 -3.92,-105.88 -1.68,-31.1 -4.15,-62.29 -7.43,-93.57 -3.18,-30.31 -7.11,-60.44 -11.87,-90.43 -1.75,-1.86 -4.67,-4.04 -8.67,-6.44l-0.82 -0.51c-5.81,-3.52 -11.82,-6.29 -18.08,-8.24 -5.83,-1.82 -12.07,-3.04 -18.74,-3.68 -4.52,0.07 -8.62,0.56 -12.27,1.45 -4.31,1.04 -9.17,2.92 -14.52,5.52l-1.18 0.56c-39.06,20.72 -74.77,44.22 -107.13,70.48 -33.19,26.91 -63.14,56.89 -89.98,89.92 -26.71,32.88 -49.16,67.89 -67.33,104.94 -18.28,37.27 -32.53,77.07 -42.75,119.34l-0.45 1.75c-3.75,13.68 -6.69,30.2 -8.71,49.48 -2.03,19.31 -3.06,42.29 -3.06,68.89l-0.04 2.18c0.64,16.67 1.05,34.53 1.45,51.32 0,13.16 0.49,26.51 0.71,39.69l0.5 46.14c0,5.24 0.42,9.55 1.26,12.88 0.87,3.2 2.07,6.21 3.59,8.92 0.85,1.31 1.84,2.39 2.9,3.21l0.26 0.2c15.52,0.87 29.3,3.54 41.35,8.04 23.48,8.8 39.64,23.78 48.47,45.15 2.85,6.94 4.19,14.11 4.19,21.18l0.19 0c0,18.67 -5.63,34.97 -16.65,48.63l-2.01 2.36c-10.62,12.17 -24.57,20.18 -41.65,23.86 -14.11,3.33 -32.42,6.32 -53.9,9 -2.26,0.27 -4.53,0.41 -6.76,0.41 -56.82,0.03 -111.34,-0.48 -163.59,-1.5 -45,-0.87 -79.88,-2.12 -104.55,-3.7 -27.64,-0.12 -48.73,-12.11 -63.02,-36.16 -8.63,-14.51 -13.01,-32.59 -13.01,-54.25 0,-16.43 7.1,-31.21 18.39,-41.44 7.76,-7.14 18.18,-13.49 31.28,-19.03 10.13,-4.29 21.85,-8.24 35.05,-11.79l0.99 -0.25c8.58,-2.58 15.96,-5.1 21.94,-7.56l5.08 -2.25 0.2 -3.22 2.6 -605.41 -0.21 0c0,-2.1 -0.18,-3.71 -0.47,-4.73l-0.68 -1.82c-0.75,-0.95 -1.62,-1.82 -2.57,-2.58 -1.02,-0.8 -2.2,-1.5 -3.49,-2.02 -3.41,-1.36 -6.61,-3.03 -9.58,-4.95 -1.67,-0.92 -4.13,-1.88 -7.37,-2.84 -5.28,-1.55 -12.02,-2.84 -20.18,-3.79 -14.64,-1.68 -27.35,-4.09 -38.06,-7.32 -15.9,-4.79 -29,-11.87 -39.25,-21.49 -11.66,-10.96 -17.55,-25.77 -17.55,-40.62l-0.15 0c0,-24.11 6.53,-44 19.72,-59.78 1.42,-1.69 2.92,-3.28 4.49,-4.76 15.15,-15.56 34.56,-23.25 58.34,-23.25l233.67 0c29.73,0 54.05,23.23 55.78,52.52 3.31,22.63 5.91,48.71 7.75,78.03l0.06 1.17c1.41,22.95 2.42,49.31 3.03,79.05 14.81,-21.79 30.79,-42.6 47.95,-62.37 22.04,-25.45 45.6,-49.09 70.63,-70.87l3.32 -2.66c25.44,-21.95 52.43,-40.68 80.84,-56.29 30.1,-16.54 62.1,-29.76 95.8,-39.74l4.25 -1.07c13.52,-3.55 27.29,-6.3 41.39,-8.15 16.08,-2.14 31.72,-3.23 46.95,-3.23 31.12,0 60.6,5.1 88.34,15.29 27.65,10.15 53.19,25.39 76.54,45.64 14.7,12.73 27.45,26.28 38.05,40.48 10.7,14.34 19.72,30.03 26.86,46.93l0.16 -0.07c6.56,15.22 12.21,32.04 16.88,50.55 4.46,17.75 7.98,36.92 10.42,57.55l0.27 3.11 2.37 17.94c43.81,-68.08 87.54,-123.65 131.18,-166.71 76.05,-75.01 153.29,-113.6 231.53,-115.75l1.53 -0.02 0 -0.2c32.41,0 62.94,4.02 91.44,12.12 28.71,8.17 55.24,20.6 79.49,37.34l0.06 -0.1c24.88,16.76 46.31,37.97 64.21,63.54 17.15,24.51 30.63,52.63 40.39,84.3 11.46,32.3 19.98,65.63 25.64,99.93 5.93,35.88 8.86,72.44 8.86,109.49 0,16.1 -0.86,37.93 -2.66,65.44 -1.54,23.7 -3.99,52.76 -7.39,87.22l-0.17 1.48c-2.79,28.79 -5.06,55.23 -6.78,79.09 -1.48,20.69 -2.22,36.41 -2.22,47.18 0,23.4 1.49,46.81 4.41,70.26 3.06,24.56 7.44,48.44 13.05,71.7l0.43 1.94c1.03,3.97 3.09,7.41 6.14,10.24 3.98,3.69 9.75,6.99 17.31,9.84 13.11,-0.88 25.77,-4 37.95,-9.36 15.95,-7.01 31.63,-17.88 46.95,-32.53l2.88 -2.57c3.39,-2.88 6.38,-6.31 8.92,-10.26 3.31,-5.19 6.37,-11.91 9.18,-20.15 8.18,-22.87 14.66,-47.06 22.36,-70.16 4.87,-15.78 11.37,-29.59 19.32,-41.34 9.59,-14.18 21.47,-25.74 35.4,-34.59 9.28,-5.92 19.65,-8.74 29.91,-8.73l0 -0.23 5.24 0c28.96,0 52.8,22.04 55.62,50.27zm1285.21 -2292.96c275.7,0 531.12,84.89 766.26,253.16l6.76 0 0 -253.16 512.33 0 0 2575.21 -512.33 0 0 -253.16c-239.64,169.02 -483.8,253.16 -733.21,253.16l-68.36 0c-385.39,0 -719.68,-169.02 -1001.39,-506.33 -172.78,-243.4 -259.18,-503.32 -259.18,-779.02 0,-426.7 184.06,-779.78 552.16,-1058.48 227.62,-154 473.28,-231.38 736.95,-231.38zm-776.77 1285.35c0,287.72 137.48,516.85 411.67,686.63 115.69,60.1 233.63,90.14 354.58,90.14l33.05 0c232.88,0 436.47,-108.17 609.25,-325.28 93.9,-142.74 141.23,-283.22 141.23,-422.94l0 -35.32c0,-268.19 -127.71,-487.55 -383.13,-658.07 -130.71,-71.36 -262.17,-107.42 -394.39,-107.42 -246.41,0 -454.5,108.17 -625.02,325.28 -97.66,145.74 -147.25,294.48 -147.25,446.98zm2284.49 90.14c-51.08,-558.91 119.45,-972.84 510.84,-1241.03l6.76 0c160.01,-89.39 329.79,-134.47 510.84,-134.47 297.48,0 555.15,116.44 772.26,350.07 211.09,-233.63 472.53,-350.07 783.53,-350.07 283.21,0 533.37,111.18 750.47,332.8 178.79,202.08 268.2,439.46 268.2,710.67l0 1531.75 -512.34 0 0 -1531.75c0,-238.14 -119.45,-407.17 -359.09,-508.58 -66.1,-14.28 -118.7,-21.79 -158.51,-21.79 -209.59,0 -369.6,106.67 -479.28,321.52 -27.05,68.37 -39.82,155.5 -39.82,259.18l0 1481.42 -513.09 0 0 -1560.3c0,-187.8 -99.16,-340.31 -296.73,-458.25 -82.64,-29.29 -157.76,-43.56 -226.88,-43.56 -189.31,0 -343.31,99.91 -462,298.98 -29.3,82.64 -44.33,151 -44.33,207.35l0 1555.79 -512.34 0 1.5 -1199.72zm5124.14 -1375.5c337.3,0 638.54,126.21 902.22,378.62 250.92,265.93 376.37,569.42 376.37,911.24 0,358.34 -138.23,673.85 -416.18,946.54 -254.66,226.13 -543.89,338.81 -866.91,338.81l-11.26 0c-382.38,0 -709.92,-151.75 -981.11,-455.25 -202.84,-253.92 -303.5,-531.11 -303.5,-830.1 0,-259.93 76.62,-505.58 230.64,-736.95 275.69,-368.85 632.53,-552.91 1069.75,-552.91zm-781.28 1245.54l0 33.05 -6.76 6.76 6.76 4.51 0 35.31c0,208.09 99.16,401.16 296.74,578.44 151.75,105.93 309.51,158.51 473.27,158.51 253.92,0 464.26,-108.17 631.79,-325.28 98.41,-145.74 147.24,-294.48 147.24,-446.98 0,-266.68 -123.95,-488.3 -371.86,-664.84 -134.47,-74.37 -274.2,-111.93 -417.68,-111.93 -256.92,0 -471.02,120.2 -643.05,360.59 -77.38,132.21 -116.44,256.17 -116.44,371.86zm2280.73 42.07c29.3,-419.19 199.83,-751.23 512.34,-994.63l6.76 0c272.7,-195.32 613.75,-292.98 1023.17,-292.98l0 513.09c-495.81,0 -818.84,172.78 -968.33,519.1 -41.32,101.42 -61.6,195.32 -61.6,281.72l0 1261.31 -512.34 0 0 -1287.61zm-19205.18 -2714.37l0 450.74 -537.13 -4.51 0 3578.86 -512.33 0 0 -253.16c-239.64,169.02 -493.56,253.16 -761.75,253.16l-26.3 0c-415.43,0 -765.51,-184.06 -1050.22,-552.16 -149.49,-232.13 -223.87,-477.78 -223.87,-737.71 0,-422.19 184.06,-775.27 552.16,-1058.48 229.12,-150.99 478.54,-226.87 748.23,-226.87 269.69,0 499.56,69.86 688.87,209.59l72.88 43.57 0 -772.26 0 -385.39c-22.54,-360.59 88.64,-543.14 332.04,-545.39l717.42 0zm-2599.26 2739.74c0,272.7 127.71,494.31 383.12,664.84 120.2,72.12 255.42,107.42 404.92,107.42 255.42,0 468.02,-117.94 638.54,-353.83 81.89,-133.72 123.2,-267.43 123.2,-401.15l0 -39.06c0,-241.15 -113.44,-446.98 -339.56,-619.01 -134.47,-90.91 -283.21,-135.97 -443.97,-135.97 -250.91,0 -463.51,116.44 -636.3,350.07 -86.39,135.97 -129.96,278.7 -129.96,426.7zm3583.37 -1289.86c337.3,0 638.54,126.21 902.22,378.62 250.92,265.93 376.37,569.42 376.37,911.24 0,358.34 -138.23,673.85 -416.18,946.54 -254.66,226.13 -543.89,338.81 -866.91,338.81l-11.26 0c-382.38,0 -709.92,-151.75 -981.11,-455.25 -202.84,-253.92 -303.5,-531.11 -303.5,-830.1 0,-259.93 76.62,-505.58 230.64,-736.95 275.69,-368.85 632.53,-552.91 1069.75,-552.91zm-781.28 1245.54l0 33.05 -6.76 6.76 6.76 4.51 0 35.31c0,208.09 99.16,401.16 296.74,578.44 151.75,105.93 309.51,158.51 473.27,158.51 253.92,0 464.26,-108.17 631.79,-325.28 98.41,-145.74 147.24,-294.48 147.24,-446.98 0,-266.68 -123.95,-488.3 -371.86,-664.84 -134.47,-74.37 -274.2,-111.93 -417.68,-111.93 -256.92,0 -471.02,120.2 -643.05,360.59 -77.38,132.21 -116.44,256.17 -116.44,371.86zm3576.61 -1245.54c378.62,0 705.41,151.75 979.61,456 202.07,255.42 303.49,531.86 303.49,829.35 -3.01,96.91 -12.02,182.55 -26.29,257.67l-1989.27 0c62.35,189.31 188.57,334.3 377.87,435.72 111.93,55.59 227.62,83.38 347.82,83.38 202.84,0 385.39,-74.37 548.4,-223.86l358.34 358.33 0 6.76c-259.18,247.9 -559.67,371.86 -899.97,371.86l-11.26 0c-382.38,0 -709.92,-151.75 -981.11,-455.25 -202.84,-253.92 -303.5,-531.11 -303.5,-830.1 0,-381.63 151.76,-709.92 455.25,-985.62 246.4,-202.83 526.61,-304.24 840.63,-304.24zm-732.45 1032.19l1452.13 0c-57.09,-171.28 -172.78,-312.51 -347.82,-422.19 -130.71,-64.61 -258.43,-96.91 -383.12,-96.91 -272.71,0 -496.57,131.46 -670.85,393.65l-50.34 125.45zm-9008.13 -1970.04c971.89,0 1759.78,787.9 1759.78,1759.79 0,971.89 -787.89,1759.78 -1759.78,1759.78 -971.89,0 -1759.78,-787.89 -1759.78,-1759.78 0,-971.89 787.89,-1759.79 1759.78,-1759.79zm0 328.58c790.44,0 1431.21,640.78 1431.21,1431.21 0,790.43 -640.78,1431.21 -1431.21,1431.21 -790.43,0 -1431.21,-640.79 -1431.21,-1431.21 0,-790.44 640.79,-1431.21 1431.21,-1431.21zm1863.08 -433.63l0 3479.87c0,190.58 266.21,231.98 324.55,50.85 18.45,-57.32 7.8,-1698.76 7.8,-1800.56 78.68,-41.63 138.87,-102.48 174.83,-186.83 36.57,-85.76 54.39,-192.77 59.77,-304.58l0 -158.74c-5.17,-118.43 -20.87,-233.66 -39.83,-326.63 -37.03,-181.74 -144.38,-678.05 -214.01,-831.9 -49.85,-110.12 -208.12,-111.93 -270.5,-35.28 -22.71,27.9 -42.61,67.25 -42.61,113.79zm-4437.82 -9.78l0 625.6c0,159.03 174.66,351.9 400.77,351.9l0 2521.93c0,202.09 332.36,226.58 332.36,-29.33l0 -2492.6c234.61,-5.23 400.77,-178.46 400.77,-420.32l0 -547.39c0,-46.54 -19.9,-85.9 -42.61,-113.79 -53.03,-65.15 -167.53,-70.08 -232.87,-15.06 -78.66,66.25 -56.88,205.7 -56.88,324.35 0,84.72 -0.02,169.43 0,254.15 0.03,98.85 24.05,178.02 -68.42,185.72 0,-92.8 10.3,-627.84 -11.23,-692.57 -46.76,-140.58 -244.36,-146.12 -307.14,-16.79 -29.27,60.31 -13.99,617.13 -13.99,709.36 -36.7,-3.06 -45.76,-14.15 -68.42,-29.33 0,-107.11 12.78,-586.38 -16.43,-667.82 -58.64,-163.53 -315.93,-128.87 -315.93,52z"/>
  <path class="fil2" d="M292.83 690.03l0 625.6c0,159.03 174.66,351.9 400.77,351.9l0 2521.93c0,202.09 332.36,226.58 332.36,-29.33l0 -2492.6c234.61,-5.23 400.77,-178.46 400.77,-420.32l0 -547.39c0,-46.54 -19.9,-85.9 -42.61,-113.79 -53.03,-65.15 -167.53,-70.08 -232.87,-15.06 -78.66,66.25 -56.88,205.7 -56.88,324.35 0,84.72 -0.02,169.43 0,254.15 0.03,98.85 24.05,178.02 -68.42,185.72 0,-92.8 10.3,-627.84 -11.23,-692.57 -46.76,-140.58 -244.36,-146.12 -307.14,-16.79 -29.27,60.31 -13.99,617.13 -13.99,709.36 -36.7,-3.06 -45.76,-14.15 -68.42,-29.33 0,-107.11 12.78,-586.38 -16.43,-667.82 -58.64,-163.53 -315.93,-128.87 -315.93,52z"/>
  <path class="fil2" d="M4730.65 699.81l0 3479.87c0,190.58 266.21,231.98 324.55,50.85 18.45,-57.32 7.8,-1698.76 7.8,-1800.56 78.68,-41.63 138.87,-102.48 174.83,-186.83 36.57,-85.76 54.39,-192.77 59.77,-304.58l0 -158.74c-5.17,-118.43 -20.87,-233.66 -39.83,-326.63 -37.03,-181.74 -144.38,-678.05 -214.01,-831.9 -49.85,-110.12 -208.12,-111.93 -270.5,-35.28 -22.71,27.9 -42.61,67.25 -42.61,113.79z"/>
  <path class="fil2" d="M2867.57 804.86c971.89,0 1759.78,787.9 1759.78,1759.79 0,971.89 -787.89,1759.78 -1759.78,1759.78 -971.89,0 -1759.78,-787.89 -1759.78,-1759.78 0,-971.89 787.89,-1759.79 1759.78,-1759.79zm0 328.58c790.44,0 1431.21,640.78 1431.21,1431.21 0,790.43 -640.78,1431.21 -1431.21,1431.21 -790.43,0 -1431.21,-640.79 -1431.21,-1431.21 0,-790.44 640.79,-1431.21 1431.21,-1431.21z"/>
  <path class="fil3" d="M8828.71 292.83l0 450.74 -537.13 -4.51 0 3578.86 -512.33 0 0 -253.16c-239.64,169.02 -493.56,253.16 -761.75,253.16l-26.3 0c-415.43,0 -765.51,-184.06 -1050.22,-552.16 -149.49,-232.13 -223.87,-477.78 -223.87,-737.71 0,-422.19 184.06,-775.27 552.16,-1058.48 229.12,-150.99 478.54,-226.87 748.23,-226.87 269.69,0 499.56,69.86 688.87,209.59l72.88 43.57 0 -772.26 0 -385.39c-22.54,-360.59 88.64,-543.14 332.04,-545.39l717.42 0zm-2599.26 2739.74c0,272.7 127.71,494.31 383.12,664.84 120.2,72.12 255.42,107.42 404.92,107.42 255.42,0 468.02,-117.94 638.54,-353.83 81.89,-133.72 123.2,-267.43 123.2,-401.15l0 -39.06c0,-241.15 -113.44,-446.98 -339.56,-619.01 -134.47,-90.91 -283.21,-135.97 -443.97,-135.97 -250.91,0 -463.51,116.44 -636.3,350.07 -86.39,135.97 -129.96,278.7 -129.96,426.7zm3583.37 -1289.86c337.3,0 638.54,126.21 902.22,378.62 250.92,265.93 376.37,569.42 376.37,911.24 0,358.34 -138.23,673.85 -416.18,946.54 -254.66,226.13 -543.89,338.81 -866.91,338.81l-11.26 0c-382.38,0 -709.92,-151.75 -981.11,-455.25 -202.84,-253.92 -303.5,-531.11 -303.5,-830.1 0,-259.93 76.62,-505.58 230.64,-736.95 275.69,-368.85 632.53,-552.91 1069.75,-552.91zm-781.28 1245.54l0 33.05 -6.76 6.76 6.76 4.51 0 35.31c0,208.09 99.16,401.16 296.74,578.44 151.75,105.93 309.51,158.51 473.27,158.51 253.92,0 464.26,-108.17 631.79,-325.28 98.41,-145.74 147.24,-294.48 147.24,-446.98 0,-266.68 -123.95,-488.3 -371.86,-664.84 -134.47,-74.37 -274.2,-111.93 -417.68,-111.93 -256.92,0 -471.02,120.2 -643.05,360.59 -77.38,132.21 -116.44,256.17 -116.44,371.86zm3576.61 -1245.54c378.62,0 705.41,151.75 979.61,456 202.07,255.42 303.49,531.86 303.49,829.35 -3.01,96.91 -12.02,182.55 -26.29,257.67l-1989.27 0c62.35,189.31 188.57,334.3 377.87,435.72 111.93,55.59 227.62,83.38 347.82,83.38 202.84,0 385.39,-74.37 548.4,-223.86l358.34 358.33 0 6.76c-259.18,247.9 -559.67,371.86 -899.97,371.86l-11.26 0c-382.38,0 -709.92,-151.75 -981.11,-455.25 -202.84,-253.92 -303.5,-531.11 -303.5,-830.1 0,-381.63 151.76,-709.92 455.25,-985.62 246.4,-202.83 526.61,-304.24 840.63,-304.24zm-732.45 1032.19l1452.13 0c-57.09,-171.28 -172.78,-312.51 -347.82,-422.19 -130.71,-64.61 -258.43,-96.91 -383.12,-96.91 -272.71,0 -496.57,131.46 -670.85,393.65l-50.34 125.45z"/>
  <path class="fil3" d="M19902.57 1719.59c275.7,0 531.12,84.89 766.26,253.16l6.76 0 0 -253.16 512.33 0 0 2575.21 -512.33 0 0 -253.16c-239.64,169.02 -483.8,253.16 -733.21,253.16l-68.36 0c-385.39,0 -719.68,-169.02 -1001.39,-506.33 -172.78,-243.4 -259.18,-503.32 -259.18,-779.02 0,-426.7 184.06,-779.78 552.16,-1058.48 227.62,-154 473.28,-231.38 736.95,-231.38zm-776.77 1285.35c0,287.72 137.48,516.85 411.67,686.63 115.69,60.1 233.63,90.14 354.58,90.14l33.05 0c232.88,0 436.47,-108.17 609.25,-325.28 93.9,-142.74 141.23,-283.22 141.23,-422.94l0 -35.32c0,-268.19 -127.71,-487.55 -383.13,-658.07 -130.71,-71.36 -262.17,-107.42 -394.39,-107.42 -246.41,0 -454.5,108.17 -625.02,325.28 -97.66,145.74 -147.25,294.48 -147.25,446.98zm2284.49 90.14c-51.08,-558.91 119.45,-972.84 510.84,-1241.03l6.76 0c160.01,-89.39 329.79,-134.47 510.84,-134.47 297.48,0 555.15,116.44 772.26,350.07 211.09,-233.63 472.53,-350.07 783.53,-350.07 283.21,0 533.37,111.18 750.47,332.8 178.79,202.08 268.2,439.46 268.2,710.67l0 1531.75 -512.34 0 0 -1531.75c0,-238.14 -119.45,-407.17 -359.09,-508.58 -66.1,-14.28 -118.7,-21.79 -158.51,-21.79 -209.59,0 -369.6,106.67 -479.28,321.52 -27.05,68.37 -39.82,155.5 -39.82,259.18l0 1481.42 -513.09 0 0 -1560.3c0,-187.8 -99.16,-340.31 -296.73,-458.25 -82.64,-29.29 -157.76,-43.56 -226.88,-43.56 -189.31,0 -343.31,99.91 -462,298.98 -29.3,82.64 -44.33,151 -44.33,207.35l0 1555.79 -512.34 0 1.5 -1199.72zm5124.14 -1375.5c337.3,0 638.54,126.21 902.22,378.62 250.92,265.93 376.37,569.42 376.37,911.24 0,358.34 -138.23,673.85 -416.18,946.54 -254.66,226.13 -543.89,338.81 -866.91,338.81l-11.26 0c-382.38,0 -709.92,-151.75 -981.11,-455.25 -202.84,-253.92 -303.5,-531.11 -303.5,-830.1 0,-259.93 76.62,-505.58 230.64,-736.95 275.69,-368.85 632.53,-552.91 1069.75,-552.91zm-781.28 1245.54l0 33.05 -6.76 6.76 6.76 4.51 0 35.31c0,208.09 99.16,401.16 296.74,578.44 151.75,105.93 309.51,158.51 473.27,158.51 253.92,0 464.26,-108.17 631.79,-325.28 98.41,-145.74 147.24,-294.48 147.24,-446.98 0,-266.68 -123.95,-488.3 -371.86,-664.84 -134.47,-74.37 -274.2,-111.93 -417.68,-111.93 -256.92,0 -471.02,120.2 -643.05,360.59 -77.38,132.21 -116.44,256.17 -116.44,371.86zm2280.73 42.07c29.3,-419.19 199.83,-751.23 512.34,-994.63l6.76 0c272.7,-195.32 613.75,-292.98 1023.17,-292.98l0 513.09c-495.81,0 -818.84,172.78 -968.33,519.1 -41.32,101.42 -61.6,195.32 -61.6,281.72l0 1261.31 -512.34 0 0 -1287.61z"/>
  <path class="fil4" d="M15561.68 3923.92c-11.14,25.66 -24.47,50.9 -40.03,75.7l-2.05 3.04c-16.57,26.07 -35.21,51.05 -55.9,74.93 -21.33,24.84 -44.42,48.48 -69.2,70.88 -24.47,22.12 -50.35,42.7 -77.53,61.69l-0.25 0.17c-27.55,19.16 -56.04,36.35 -85.47,51.59 -29.37,15.23 -59.97,28.63 -91.82,40.19 -31.71,11.5 -63.49,20.51 -95.18,27.04 -32.03,6.6 -63.83,10.61 -95.25,12.05l-2.4 0.05 0 0.18c-54.39,0 -107.11,-4.12 -158.12,-12.35 -50.7,-8.17 -99.06,-20.53 -144.99,-37.01l-0.2 -0.08c-45.78,-16.57 -89.39,-37.02 -130.75,-61.3 -40.97,-24.04 -79.41,-51.7 -115.16,-82.99 -36.05,-31.31 -69.86,-66.52 -101.28,-105.43 -31.16,-38.56 -60.04,-80.84 -86.54,-126.7l-1.76 -3.29c-37.43,-65.58 -65.55,-131.36 -84.26,-197.18 -19.37,-68.16 -29.08,-136.64 -29.08,-205.29 0,-73.72 10.72,-150.16 32.11,-229.74 10.3,-38.27 23.03,-77.69 38.18,-118.18 15.25,-40.74 32.09,-80.45 50.48,-118.98l1.16 -2.3c25.57,-54.84 53.42,-105.94 83.62,-153.31 30.71,-48.16 63.67,-91.97 98.88,-131.35 35.36,-39.57 74.05,-75.4 115.97,-107.25 41.55,-31.58 86.15,-59.12 133.68,-82.44 47.19,-23.48 97.98,-43.11 152.27,-58.94 53.55,-15.63 110.39,-27.47 170.46,-35.49 2.42,-0.32 4.83,-0.47 7.2,-0.48l0 -0.19c55.03,0 119.61,11.81 194.14,35.39l4.51 1.64c29.62,9.33 55.24,16.46 76.73,21.41 19.31,4.45 33.37,6.64 42.15,6.64 8.29,0 17.52,-1.17 27.59,-3.53 9.35,-2.2 19.39,-5.36 30.04,-9.53 4.48,-3.23 9.02,-5.96 13.68,-8.23 11.03,-5.33 22.11,-7.97 33.51,-7.97 33.17,0 59.6,15.82 76.75,47.45l0.11 -0.05c5.75,10.41 10.13,21.78 13.11,34.06 2.91,12.01 4.37,24.04 4.37,36.03 0,69.45 1.25,128.52 3.82,177.06 2.62,49.26 6.57,90.07 11.9,122.37 1.57,9.62 0.57,19.07 -2.5,27.65 -4.01,12.78 -9.79,23.55 -17.21,32.11 -13.88,16.1 -31.28,24.3 -51.91,24.3 -13.1,0 -25.7,-3.6 -37.88,-10.39l-0.22 0c-8.42,-4.72 -16.32,-10.87 -23.68,-18.23 -7.77,-7.76 -14.35,-16.82 -19.83,-27.07l-0.2 0c-4.84,-9.11 -8.48,-19.33 -10.98,-30.57l-0.55 -2.86 -0.11 0.02c-3.26,-19.25 -8.55,-38.53 -15.94,-57.87 -7.51,-19.7 -17.03,-39.04 -28.61,-58.09l-0.16 -0.26c-11.63,-19.11 -24.8,-37.01 -39.53,-53.59 -14.62,-16.44 -30.9,-31.67 -48.76,-45.53 -17.68,-13.72 -35.21,-24.8 -52.62,-33.25 -17.23,-8.35 -34.77,-14.45 -52.65,-18.29l-4.5 -1.15c-16.73,-3.98 -34.29,-7.13 -52.72,-9.39 -18.46,-2.27 -37.29,-3.44 -56.56,-3.44 -75.98,0 -149.12,20.39 -219.43,61.15 -73.12,42.39 -143.69,106.62 -211.67,192.62l-0.29 0.37c-20.64,25.85 -39.98,53.1 -57.91,81.86 -17.92,28.74 -34.27,58.76 -49.02,90.08 -15.31,32.32 -28.55,64.44 -39.57,96.22 -11.07,31.92 -20.34,64.37 -27.69,97.28 -7.31,32.7 -12.86,66.28 -16.6,100.73 -3.64,33.36 -5.46,68 -5.46,103.9 0,96.73 13.84,186.41 41.43,269.01 27.54,82.38 69.01,158.71 124.34,228.93l0.87 1.14c51.55,64.17 110.96,112.22 178.2,144.07 67.87,32.18 144.7,48.27 230.4,48.27 17.69,0 36.82,-1.05 57.49,-3.1 22.51,-2.24 47.17,-5.49 73.96,-9.68 36.22,-7.49 71.55,-19.65 106,-36.46 34.93,-17.04 68.39,-38.64 100.4,-64.76 32.88,-26.81 62.54,-55.81 88.83,-86.98 25.86,-30.66 48.2,-63.11 66.88,-97.33 13.84,-25.43 44.62,-35.74 70.72,-24.61l29.73 12.6c10.59,4.51 19.07,11.92 24.9,20.91 0.81,-16.74 2.67,-34.49 5.57,-53.18 3.93,-25.31 9.54,-50.6 16.71,-75.84l1.17 -3.64c16.87,-53.48 40.12,-101.78 69.64,-144.96 30.1,-44 66.66,-82.52 109.57,-115.63 42.44,-32.76 89.27,-59.07 140.47,-78.95 50.75,-19.69 105.48,-33 164.17,-39.85l4.48 -0.33c18.88,-1.83 33.54,-3.1 43.83,-3.81 14.79,-1.02 26.01,-1.54 33.59,-1.54 79.54,0 153.14,14.71 220.84,44.11 67.47,29.3 128.16,73 182.07,131.02 1.54,1.66 2.96,3.38 4.26,5.16 33.15,40.92 58.05,84.78 74.73,131.65 17.09,47.98 25.62,98.71 25.62,152.33 0,21.59 -1.87,44.83 -5.52,69.77 -3.54,24.16 -8.72,49.41 -15.44,75.88l-0.76 2.71c-7.12,30.06 -16.53,58.29 -28.23,84.75 -12.37,27.96 -27.53,54.52 -45.53,79.79 -17.37,24.81 -37,47.75 -58.75,68.88 -21.44,20.83 -45,39.84 -70.55,57.04l0.08 0.11c-25.41,17.18 -53.08,32.34 -83.11,45.43 -29.61,12.92 -60.92,23.55 -94.01,31.88l-3.25 0.71c-24.78,5.28 -49.37,9.32 -73.68,12.06 -25.11,2.82 -49.28,4.27 -72.45,4.27 -69.27,0 -136.81,-11.36 -202.6,-34.08 -65.01,-22.45 -127.49,-55.88 -187.42,-100.24l-3.04 -2.42c-50.42,-43.17 -88.47,-91.85 -114.08,-146.07 -20.2,-42.8 -32.53,-88.54 -36.97,-137.29zm826.48 -259.97c-11.26,-18.7 -22.59,-35.05 -33.91,-48.78 -10.5,-12.75 -21.71,-24.05 -33.57,-33.76l-2.68 -2.34c-10.47,-8.6 -21.89,-16.01 -34.18,-22.17 -13.76,-6.91 -29.25,-12.67 -46.35,-17.21l-3 -0.88c-26.47,-6.73 -50.61,-11.87 -72.32,-15.38 -20.18,-3.25 -38.14,-4.91 -53.74,-4.91 -41.71,0 -78.93,9.48 -111.66,28.43 -33.83,19.6 -64.17,49.87 -91.02,90.81l-1.2 1.76c-20.46,32.95 -35.98,67.81 -46.45,104.54 -10.73,37.53 -16.12,77.23 -16.12,119.09 0,24.56 1.53,48.24 4.53,71.08 3.02,22.97 7.41,45.88 13.09,68.69 7.99,23.49 18.95,44.83 32.84,63.99 14.14,19.5 31.19,36.78 51.09,51.74 20.09,15.11 41.66,26.63 64.67,34.57 22.68,7.84 47.24,12.37 73.6,13.61l0 -0.13c12.24,0 22.39,0 33.62,0.65 7.02,0.38 14.49,1.15 22.52,1.96 24.14,-0.05 46.6,-1.93 67.3,-5.57 20.59,-3.63 39.61,-9 56.95,-16.05l2.54 -0.96c15.13,-6.34 29.41,-14.96 42.89,-25.84 14.78,-11.94 28.67,-26.67 41.71,-44.18l0 -0.21c31.09,-41.65 54.18,-82.76 69.24,-123.29 14.55,-39.18 21.84,-78.69 21.84,-118.47 0,-29.04 -4.23,-57.52 -12.67,-85.45 -8.78,-29.11 -21.76,-57.35 -38.88,-84.7l-0.47 -0.77 -0.19 0.12zm2229.2 348.61c1.76,10.53 3.03,18.78 3.77,24.72 1.16,9.35 1.75,16.97 1.75,22.84 0,37.79 -7.29,74.76 -21.86,110.83 -14.09,34.89 -34.91,68.44 -62.42,100.56l-0.2 0.21c-25.72,31.29 -57.62,56.38 -95.56,75.09 -36.98,18.21 -79.34,30.29 -127,36.06 -2.2,0.26 -4.38,0.38 -6.55,0.38 -30.93,0.07 -59.65,-5.35 -86.02,-16.11 -26.84,-10.93 -50.82,-27.27 -71.86,-48.91l-0.2 -0.21c-18.39,-19.15 -34.76,-41.38 -48.97,-66.55 -13.94,-24.65 -25.45,-51.26 -34.46,-79.75 -0.72,-2.28 -1.29,-4.58 -1.7,-6.87 -7.02,-28.87 -12.33,-58.63 -15.88,-89.23 -3.69,-31.88 -5.57,-64.44 -5.57,-97.62 0,-7.95 0.63,-22.75 1.85,-44.44 1.24,-21.77 2.89,-46.5 4.91,-74.35l0.13 -1.5c1.99,-30.46 3.5,-56.46 4.41,-77.6 0.89,-20.52 1.36,-40.47 1.36,-60.24 0,-39.95 -3.62,-76.19 -10.82,-108.65 -7.05,-31.77 -17.73,-61.09 -31.99,-87.91 -1,-1.89 -1.88,-3.83 -2.66,-5.79 -0.39,-0.54 -0.83,-0.95 -1.28,-1.2 -3.09,-1.73 -8.78,-2.61 -17.04,-2.61 -6.78,0 -13.93,0.91 -21.32,2.75 -7.78,1.95 -15.9,4.88 -24.24,8.79 -24.42,14.14 -50.04,33.59 -76.81,58.32 -28.45,26.31 -58.58,59 -90.34,98.07 -30.26,37.26 -54.44,73.58 -72.37,108.8 -16.72,32.83 -27.65,63.97 -32.66,93.29 -3.99,38.61 -7.06,84.26 -9.08,136.82 -1.79,46.22 -2.77,101.28 -2.94,165.24l1.94 0.57c9.21,2.59 18.18,5.75 26.86,9.55 8.91,3.88 17.42,8.49 25.45,13.81 12.52,8.25 22.43,18.77 29.53,31.33 6.98,12.3 11.05,25.98 12.07,40.73 2.04,30.75 -21.22,57.35 -51.97,59.39l-5.11 0.11c-50.34,1.66 -95.82,2.95 -136.52,3.82 -47.1,1.02 -81.71,1.53 -104.05,1.53 -18.57,0 -39.49,-0.3 -62.53,-0.87 -20.16,-0.53 -35.19,-1.19 -44.92,-1.97 -30.75,-2.41 -53.73,-29.29 -51.31,-60.04 0.34,-4.34 1.17,-8.52 2.42,-12.5 2.88,-11.19 7.21,-21.18 13.03,-29.97 7.87,-11.86 18.14,-21.29 30.91,-28.16l-0.07 -0.12c6.34,-3.49 14.63,-7.09 24.78,-10.87l0 -0.21c5.86,-2.18 15.73,-5.36 29.16,-9.44l1.12 -0.32 -0.03 -0.12 11.14 -3.28 0 -238.27c0,-53.85 -0.37,-97.47 -1.09,-130.63 -0.82,-37.92 -2.14,-73.25 -3.92,-105.88 -1.68,-31.1 -4.15,-62.29 -7.43,-93.57 -3.18,-30.31 -7.11,-60.44 -11.87,-90.43 -1.75,-1.86 -4.67,-4.04 -8.67,-6.44l-0.82 -0.51c-5.81,-3.52 -11.82,-6.29 -18.08,-8.24 -5.83,-1.82 -12.07,-3.04 -18.74,-3.68 -4.52,0.07 -8.62,0.56 -12.27,1.45 -4.31,1.04 -9.17,2.92 -14.52,5.52l-1.18 0.56c-39.06,20.72 -74.77,44.22 -107.13,70.48 -33.19,26.91 -63.14,56.89 -89.98,89.92 -26.71,32.88 -49.16,67.89 -67.33,104.94 -18.28,37.27 -32.53,77.07 -42.75,119.34l-0.45 1.75c-3.75,13.68 -6.69,30.2 -8.71,49.48 -2.03,19.31 -3.06,42.29 -3.06,68.89l-0.04 2.18c0.64,16.67 1.05,34.53 1.45,51.32 0,13.16 0.49,26.51 0.71,39.69l0.5 46.14c0,5.24 0.42,9.55 1.26,12.88 0.87,3.2 2.07,6.21 3.59,8.92 0.85,1.31 1.84,2.39 2.9,3.21l0.26 0.2c15.52,0.87 29.3,3.54 41.35,8.04 23.48,8.8 39.64,23.78 48.47,45.15 2.85,6.94 4.19,14.11 4.19,21.18l0.19 0c0,18.67 -5.63,34.97 -16.65,48.63l-2.01 2.36c-10.62,12.17 -24.57,20.18 -41.65,23.86 -14.11,3.33 -32.42,6.32 -53.9,9 -2.26,0.27 -4.53,0.41 -6.76,0.41 -56.82,0.03 -111.34,-0.48 -163.59,-1.5 -45,-0.87 -79.88,-2.12 -104.55,-3.7 -27.64,-0.12 -48.73,-12.11 -63.02,-36.16 -8.63,-14.51 -13.01,-32.59 -13.01,-54.25 0,-16.43 7.1,-31.21 18.39,-41.44 7.76,-7.14 18.18,-13.49 31.28,-19.03 10.13,-4.29 21.85,-8.24 35.05,-11.79l0.99 -0.25c8.58,-2.58 15.96,-5.1 21.94,-7.56l5.08 -2.25 0.2 -3.22 2.6 -605.41 -0.21 0c0,-2.1 -0.18,-3.71 -0.47,-4.73l-0.68 -1.82c-0.75,-0.95 -1.62,-1.82 -2.57,-2.58 -1.02,-0.8 -2.2,-1.5 -3.49,-2.02 -3.41,-1.36 -6.61,-3.03 -9.58,-4.95 -1.67,-0.92 -4.13,-1.88 -7.37,-2.84 -5.28,-1.55 -12.02,-2.84 -20.18,-3.79 -14.64,-1.68 -27.35,-4.09 -38.06,-7.32 -15.9,-4.79 -29,-11.87 -39.25,-21.49 -11.66,-10.96 -17.55,-25.77 -17.55,-40.62l-0.15 0c0,-24.11 6.53,-44 19.72,-59.78 1.42,-1.69 2.92,-3.28 4.49,-4.76 15.15,-15.56 34.56,-23.25 58.34,-23.25l233.67 0c29.73,0 54.05,23.23 55.78,52.52 3.31,22.63 5.91,48.71 7.75,78.03l0.06 1.17c1.41,22.95 2.42,49.31 3.03,79.05 14.81,-21.79 30.79,-42.6 47.95,-62.37 22.04,-25.45 45.6,-49.09 70.63,-70.87l3.32 -2.66c25.44,-21.95 52.43,-40.68 80.84,-56.29 30.1,-16.54 62.1,-29.76 95.8,-39.74l4.25 -1.07c13.52,-3.55 27.29,-6.3 41.39,-8.15 16.08,-2.14 31.72,-3.23 46.95,-3.23 31.12,0 60.6,5.1 88.34,15.29 27.65,10.15 53.19,25.39 76.54,45.64 14.7,12.73 27.45,26.28 38.05,40.48 10.7,14.34 19.72,30.03 26.86,46.93l0.16 -0.07c6.56,15.22 12.21,32.04 16.88,50.55 4.46,17.75 7.98,36.92 10.42,57.55l0.27 3.11 2.37 17.94c43.81,-68.08 87.54,-123.65 131.18,-166.71 76.05,-75.01 153.29,-113.6 231.53,-115.75l1.53 -0.02 0 -0.2c32.41,0 62.94,4.02 91.44,12.12 28.71,8.17 55.24,20.6 79.49,37.34l0.06 -0.1c24.88,16.76 46.31,37.97 64.21,63.54 17.15,24.51 30.63,52.63 40.39,84.3 11.46,32.3 19.98,65.63 25.64,99.93 5.93,35.88 8.86,72.44 8.86,109.49 0,16.1 -0.86,37.93 -2.66,65.44 -1.54,23.7 -3.99,52.76 -7.39,87.22l-0.17 1.48c-2.79,28.79 -5.06,55.23 -6.78,79.09 -1.48,20.69 -2.22,36.41 -2.22,47.18 0,23.4 1.49,46.81 4.41,70.26 3.06,24.56 7.44,48.44 13.05,71.7l0.43 1.94c1.03,3.97 3.09,7.41 6.14,10.24 3.98,3.69 9.75,6.99 17.31,9.84 13.11,-0.88 25.77,-4 37.95,-9.36 15.95,-7.01 31.63,-17.88 46.95,-32.53l2.88 -2.57c3.39,-2.88 6.38,-6.31 8.92,-10.26 3.31,-5.19 6.37,-11.91 9.18,-20.15 8.18,-22.87 14.66,-47.06 22.36,-70.16 4.87,-15.78 11.37,-29.59 19.32,-41.34 9.59,-14.18 21.47,-25.74 35.4,-34.59 9.28,-5.92 19.65,-8.74 29.91,-8.73l0 -0.23 5.24 0c28.96,0 52.8,22.04 55.62,50.27z"/>
 </g>
</svg>
